# xmcd
#
# Track frame offsets: 
#        150
#        21672
#        39547
#        58285
#        76022
#        93912
#        111755
#        129555
#        147367
#        166025
#        183842
#        202102
#        219695
#        238052
#        255367
#        273820
#        291010
#        309180
#        338577
#
# Disc length: 4795 seconds
#
# Revision: 1
# Processed by: cddbd v1.5.1PL0 Copyright (c) Steve Scherf et al.
# Submitted via: ExactAudioCopy v0.90b4
#
DISCID=0b12b913
DTITLE=Various Artist - Super Eurobeat Vol. 153
DYEAR=2004
DGENRE=Eurobeat
TTITLE0=Stephy Martini - Emotions
TTITLE1=Dusty - It's My Life
TTITLE2=Maxx Ducati - Million Dollars
TTITLE3=Donna - In Your Dreams
TTITLE4=Garcon - Pistol Man
TTITLE5=Dave Simon - Disco Music
TTITLE6=King and Queen - Boogie Boogie
TTITLE7=Mike J. - Touch And Go
TTITLE8=Jeff Driller - Control Alt Delete And Blow
TTITLE9=Lisa Lion - Lionheart
TTITLE10=J. Storm - Shout
TTITLE11=Irene - Dancin' Baby
TTITLE12=Joe D. Toaster - Black Night Cadillac
TTITLE13=Bonnie and Clyde - Criminals
TTITLE14=Lucya - Beautiful
TTITLE15=Nuage - You'll Never Stop Me Lovin' You
TTITLE16=Nick Mansell - Feel The Power
TTITLE17=Christine - Wings Into The Sky
TTITLE18=Cdplayer.Ini
EXTD=
EXTT0=
EXTT1=
EXTT2=
EXTT3=
EXTT4=
EXTT5=
EXTT6=
EXTT7=
EXTT8=
EXTT9=
EXTT10=
EXTT11=
EXTT12=
EXTT13=
EXTT14=
EXTT15=
EXTT16=
EXTT17=
EXTT18=
PLAYORDER=
